<mxfile host="Electron" modified="2023-11-23T22:12:13.834Z" agent="Mozilla/5.0 (Windows NT 10.0; Win64; x64) AppleWebKit/537.36 (KHTML, like Gecko) draw.io/22.1.2 Chrome/114.0.5735.289 Electron/25.9.4 Safari/537.36" etag="KHAJXfmm1849IM8bHmu7" version="22.1.2" type="device">
  <diagram name="Page-1" id="eX5H0lVM46R1jyS6bw9m">
    <mxGraphModel dx="1276" dy="614" grid="1" gridSize="10" guides="1" tooltips="1" connect="1" arrows="1" fold="1" page="1" pageScale="1" pageWidth="850" pageHeight="1100" math="0" shadow="0">
      <root>
        <mxCell id="0" />
        <mxCell id="1" parent="0" />
        <mxCell id="4Bhe5SbcFD_PapkEzMj7-1" value="User" style="shape=umlLifeline;perimeter=lifelinePerimeter;container=1;collapsible=0;recursiveResize=0;rounded=0;shadow=0;strokeWidth=1;movable=1;resizable=1;rotatable=1;deletable=1;editable=1;connectable=1;" parent="1" vertex="1">
          <mxGeometry x="90" y="72" width="100" height="719" as="geometry" />
        </mxCell>
        <mxCell id="4Bhe5SbcFD_PapkEzMj7-2" value="1. select destination page" style="endArrow=classic;html=1;rounded=0;" parent="4Bhe5SbcFD_PapkEzMj7-1" edge="1">
          <mxGeometry x="-0.0734" y="15" width="50" height="50" relative="1" as="geometry">
            <mxPoint x="50.00000000000006" y="64" as="sourcePoint" />
            <mxPoint x="179.5" y="64" as="targetPoint" />
            <mxPoint as="offset" />
          </mxGeometry>
        </mxCell>
        <mxCell id="4Bhe5SbcFD_PapkEzMj7-4" value="WebPage" style="shape=umlLifeline;perimeter=lifelinePerimeter;container=1;collapsible=0;recursiveResize=0;rounded=0;shadow=0;strokeWidth=1;" parent="1" vertex="1">
          <mxGeometry x="221" y="70" width="120" height="720" as="geometry" />
        </mxCell>
        <mxCell id="4Bhe5SbcFD_PapkEzMj7-54" value="" style="points=[];perimeter=orthogonalPerimeter;rounded=0;shadow=0;strokeWidth=1;" parent="4Bhe5SbcFD_PapkEzMj7-4" vertex="1">
          <mxGeometry x="55" y="60" width="10" height="60" as="geometry" />
        </mxCell>
        <mxCell id="4Bhe5SbcFD_PapkEzMj7-68" value="11. select seat(s)" style="endArrow=classic;html=1;rounded=0;entryX=0.478;entryY=0.304;entryDx=0;entryDy=0;entryPerimeter=0;" parent="4Bhe5SbcFD_PapkEzMj7-4" edge="1">
          <mxGeometry x="0.0154" y="9" width="50" height="50" relative="1" as="geometry">
            <mxPoint x="-83" y="460" as="sourcePoint" />
            <mxPoint x="55" y="460" as="targetPoint" />
            <mxPoint x="1" as="offset" />
          </mxGeometry>
        </mxCell>
        <mxCell id="4Bhe5SbcFD_PapkEzMj7-69" value="" style="points=[];perimeter=orthogonalPerimeter;rounded=0;shadow=0;strokeWidth=1;" parent="4Bhe5SbcFD_PapkEzMj7-4" vertex="1">
          <mxGeometry x="55" y="450" width="10" height="90" as="geometry" />
        </mxCell>
        <mxCell id="4Bhe5SbcFD_PapkEzMj7-20" value="WebsiteController" style="shape=umlLifeline;perimeter=lifelinePerimeter;container=1;collapsible=0;recursiveResize=0;rounded=0;shadow=0;strokeWidth=1;" parent="1" vertex="1">
          <mxGeometry x="370" y="70" width="100" height="720" as="geometry" />
        </mxCell>
        <mxCell id="4Bhe5SbcFD_PapkEzMj7-30" value="2. get destination" style="endArrow=classic;html=1;rounded=0;" parent="4Bhe5SbcFD_PapkEzMj7-20" edge="1">
          <mxGeometry x="-0.0769" y="10" width="50" height="50" relative="1" as="geometry">
            <mxPoint x="-80" y="110" as="sourcePoint" />
            <mxPoint x="50" y="110" as="targetPoint" />
            <mxPoint as="offset" />
          </mxGeometry>
        </mxCell>
        <mxCell id="4Bhe5SbcFD_PapkEzMj7-50" value="" style="points=[];perimeter=orthogonalPerimeter;rounded=0;shadow=0;strokeWidth=1;" parent="4Bhe5SbcFD_PapkEzMj7-20" vertex="1">
          <mxGeometry x="45" y="176" width="10" height="20" as="geometry" />
        </mxCell>
        <mxCell id="4Bhe5SbcFD_PapkEzMj7-37" value="" style="points=[];perimeter=orthogonalPerimeter;rounded=0;shadow=0;strokeWidth=1;" parent="4Bhe5SbcFD_PapkEzMj7-20" vertex="1">
          <mxGeometry x="45" y="370" width="10" height="50" as="geometry" />
        </mxCell>
        <mxCell id="4Bhe5SbcFD_PapkEzMj7-76" value="12. get seat map" style="endArrow=classic;html=1;rounded=0;" parent="4Bhe5SbcFD_PapkEzMj7-20" edge="1">
          <mxGeometry x="-0.0769" y="10" width="50" height="50" relative="1" as="geometry">
            <mxPoint x="-85" y="490" as="sourcePoint" />
            <mxPoint x="45" y="490" as="targetPoint" />
            <mxPoint as="offset" />
          </mxGeometry>
        </mxCell>
        <mxCell id="4Bhe5SbcFD_PapkEzMj7-85" value="13. return available seats" style="endArrow=classic;html=1;rounded=0;dashed=1;" parent="4Bhe5SbcFD_PapkEzMj7-20" edge="1">
          <mxGeometry x="0.024" y="-10" width="50" height="50" relative="1" as="geometry">
            <mxPoint x="50" y="530" as="sourcePoint" />
            <mxPoint x="-80" y="530" as="targetPoint" />
            <mxPoint as="offset" />
          </mxGeometry>
        </mxCell>
        <mxCell id="4Bhe5SbcFD_PapkEzMj7-29" value="FlightDatabase" style="shape=umlLifeline;perimeter=lifelinePerimeter;container=1;collapsible=0;recursiveResize=0;rounded=0;shadow=0;strokeWidth=1;" parent="1" vertex="1">
          <mxGeometry x="540" y="71" width="100" height="720" as="geometry" />
        </mxCell>
        <mxCell id="4Bhe5SbcFD_PapkEzMj7-31" value="" style="points=[];perimeter=orthogonalPerimeter;rounded=0;shadow=0;strokeWidth=1;" parent="4Bhe5SbcFD_PapkEzMj7-29" vertex="1">
          <mxGeometry x="45" y="100" width="10" height="50" as="geometry" />
        </mxCell>
        <mxCell id="4Bhe5SbcFD_PapkEzMj7-35" value="" style="points=[];perimeter=orthogonalPerimeter;rounded=0;shadow=0;strokeWidth=1;" parent="4Bhe5SbcFD_PapkEzMj7-29" vertex="1">
          <mxGeometry x="45" y="239" width="10" height="81" as="geometry" />
        </mxCell>
        <mxCell id="4Bhe5SbcFD_PapkEzMj7-38" value="4. return available destinations" style="endArrow=classic;html=1;rounded=0;exitX=-0.119;exitY=0.818;exitDx=0;exitDy=0;exitPerimeter=0;dashed=1;" parent="1" edge="1">
          <mxGeometry x="0.0239" y="-10" width="50" height="50" relative="1" as="geometry">
            <mxPoint x="588.81" y="220.9000000000001" as="sourcePoint" />
            <mxPoint x="425" y="220" as="targetPoint" />
            <mxPoint as="offset" />
          </mxGeometry>
        </mxCell>
        <mxCell id="4Bhe5SbcFD_PapkEzMj7-49" value="3. get destination offerings" style="endArrow=classic;html=1;rounded=0;entryX=-0.18;entryY=0.4;entryDx=0;entryDy=0;entryPerimeter=0;" parent="1" source="4Bhe5SbcFD_PapkEzMj7-74" target="4Bhe5SbcFD_PapkEzMj7-31" edge="1">
          <mxGeometry x="-0.075" y="10" width="50" height="50" relative="1" as="geometry">
            <mxPoint x="420" y="191" as="sourcePoint" />
            <mxPoint x="580" y="190" as="targetPoint" />
            <mxPoint as="offset" />
          </mxGeometry>
        </mxCell>
        <mxCell id="4Bhe5SbcFD_PapkEzMj7-51" value="" style="endArrow=classic;html=1;rounded=0;exitX=0.436;exitY=0.26;exitDx=0;exitDy=0;exitPerimeter=0;entryX=0.512;entryY=0.26;entryDx=0;entryDy=0;entryPerimeter=0;" parent="1" source="4Bhe5SbcFD_PapkEzMj7-20" target="4Bhe5SbcFD_PapkEzMj7-4" edge="1">
          <mxGeometry width="50" height="50" relative="1" as="geometry">
            <mxPoint x="580" y="220" as="sourcePoint" />
            <mxPoint x="270" y="257" as="targetPoint" />
          </mxGeometry>
        </mxCell>
        <mxCell id="4Bhe5SbcFD_PapkEzMj7-52" value="5. load destinations page" style="text;html=1;align=center;verticalAlign=middle;resizable=0;points=[];autosize=1;strokeColor=none;fillColor=none;" parent="1" vertex="1">
          <mxGeometry x="270" y="220" width="160" height="30" as="geometry" />
        </mxCell>
        <mxCell id="4Bhe5SbcFD_PapkEzMj7-3" value="6. select destination" style="endArrow=classic;html=1;rounded=0;entryX=0.478;entryY=0.304;entryDx=0;entryDy=0;entryPerimeter=0;" parent="1" source="4Bhe5SbcFD_PapkEzMj7-1" target="4Bhe5SbcFD_PapkEzMj7-4" edge="1">
          <mxGeometry x="0.0154" y="9" width="50" height="50" relative="1" as="geometry">
            <mxPoint x="145" y="288.55" as="sourcePoint" />
            <mxPoint x="269.4999999999999" y="288.54999999999995" as="targetPoint" />
            <mxPoint x="1" as="offset" />
          </mxGeometry>
        </mxCell>
        <mxCell id="4Bhe5SbcFD_PapkEzMj7-10" value="7. get page of flights" style="endArrow=classic;html=1;rounded=0;exitX=0.558;exitY=0.335;exitDx=0;exitDy=0;exitPerimeter=0;" parent="1" source="4Bhe5SbcFD_PapkEzMj7-4" edge="1">
          <mxGeometry x="-0.0765" y="9" width="50" height="50" relative="1" as="geometry">
            <mxPoint x="286" y="310.1" as="sourcePoint" />
            <mxPoint x="416.48" y="310" as="targetPoint" />
            <mxPoint as="offset" />
          </mxGeometry>
        </mxCell>
        <mxCell id="4Bhe5SbcFD_PapkEzMj7-58" value="" style="endArrow=classic;html=1;rounded=0;exitX=0.496;exitY=0.354;exitDx=0;exitDy=0;exitPerimeter=0;" parent="1" target="4Bhe5SbcFD_PapkEzMj7-57" edge="1">
          <mxGeometry x="-0.0734" y="9" width="50" height="50" relative="1" as="geometry">
            <mxPoint x="286" y="310.1" as="sourcePoint" />
            <mxPoint x="416.48" y="310" as="targetPoint" />
            <mxPoint as="offset" />
          </mxGeometry>
        </mxCell>
        <mxCell id="4Bhe5SbcFD_PapkEzMj7-57" value="" style="points=[];perimeter=orthogonalPerimeter;rounded=0;shadow=0;strokeWidth=1;" parent="1" vertex="1">
          <mxGeometry x="276" y="280" width="10" height="40" as="geometry" />
        </mxCell>
        <mxCell id="4Bhe5SbcFD_PapkEzMj7-60" value="" style="endArrow=classic;html=1;rounded=0;dashed=1;" parent="1" edge="1">
          <mxGeometry x="-0.0734" y="9" width="50" height="50" relative="1" as="geometry">
            <mxPoint x="590" y="375" as="sourcePoint" />
            <mxPoint x="415" y="374.5000000000001" as="targetPoint" />
            <mxPoint as="offset" />
          </mxGeometry>
        </mxCell>
        <mxCell id="4Bhe5SbcFD_PapkEzMj7-59" value="" style="points=[];perimeter=orthogonalPerimeter;rounded=0;shadow=0;strokeWidth=1;" parent="1" vertex="1">
          <mxGeometry x="415" y="302" width="10" height="40" as="geometry" />
        </mxCell>
        <mxCell id="4Bhe5SbcFD_PapkEzMj7-61" value="8. get available flights" style="endArrow=classic;html=1;rounded=0;exitX=0.558;exitY=0.335;exitDx=0;exitDy=0;exitPerimeter=0;entryX=0.48;entryY=0.35;entryDx=0;entryDy=0;entryPerimeter=0;" parent="1" target="4Bhe5SbcFD_PapkEzMj7-29" edge="1">
          <mxGeometry x="-0.0765" y="9" width="50" height="50" relative="1" as="geometry">
            <mxPoint x="425" y="322.5" as="sourcePoint" />
            <mxPoint x="553.48" y="321.5" as="targetPoint" />
            <mxPoint as="offset" />
          </mxGeometry>
        </mxCell>
        <mxCell id="4Bhe5SbcFD_PapkEzMj7-62" value="9. return available flights" style="text;html=1;align=center;verticalAlign=middle;resizable=0;points=[];autosize=1;strokeColor=none;fillColor=none;" parent="1" vertex="1">
          <mxGeometry x="435" y="348" width="150" height="30" as="geometry" />
        </mxCell>
        <mxCell id="4Bhe5SbcFD_PapkEzMj7-66" value="10. load flights page" style="text;html=1;align=center;verticalAlign=middle;resizable=0;points=[];autosize=1;strokeColor=none;fillColor=none;" parent="1" vertex="1">
          <mxGeometry x="285" y="420" width="130" height="30" as="geometry" />
        </mxCell>
        <mxCell id="4Bhe5SbcFD_PapkEzMj7-67" value="" style="endArrow=classic;html=1;rounded=0;exitX=0.436;exitY=0.26;exitDx=0;exitDy=0;exitPerimeter=0;entryX=0.512;entryY=0.26;entryDx=0;entryDy=0;entryPerimeter=0;" parent="1" edge="1">
          <mxGeometry width="50" height="50" relative="1" as="geometry">
            <mxPoint x="415" y="450" as="sourcePoint" />
            <mxPoint x="283" y="450" as="targetPoint" />
          </mxGeometry>
        </mxCell>
        <mxCell id="4Bhe5SbcFD_PapkEzMj7-75" value="" style="endArrow=classic;html=1;rounded=0;entryX=-0.18;entryY=0.4;entryDx=0;entryDy=0;entryPerimeter=0;" parent="1" target="4Bhe5SbcFD_PapkEzMj7-74" edge="1">
          <mxGeometry x="-0.075" y="10" width="50" height="50" relative="1" as="geometry">
            <mxPoint x="420" y="191" as="sourcePoint" />
            <mxPoint x="583" y="191" as="targetPoint" />
            <mxPoint as="offset" />
          </mxGeometry>
        </mxCell>
        <mxCell id="4Bhe5SbcFD_PapkEzMj7-74" value="" style="points=[];perimeter=orthogonalPerimeter;rounded=0;shadow=0;strokeWidth=1;" parent="1" vertex="1">
          <mxGeometry x="415" y="176" width="10" height="40" as="geometry" />
        </mxCell>
      </root>
    </mxGraphModel>
  </diagram>
</mxfile>
